<?xml version="1.0" encoding="UTF-8"?>
<svg id="Lager_1" data-name="Lager 1" xmlns="http://www.w3.org/2000/svg" xmlns:xlink="http://www.w3.org/1999/xlink" viewBox="0 0 1080 1920">
  <defs>
    <style>
      .cls-1 {
        stroke: url(#Namnlös_övertoning_19-4);
      }

      .cls-1, .cls-2, .cls-3 {
        fill: none;
      }

      .cls-1, .cls-2, .cls-3, .cls-4 {
        stroke-miterlimit: 10;
      }

      .cls-1, .cls-4 {
        stroke-width: 4px;
      }

      .cls-5 {
        fill: url(#Namnlös_övertoning_25);
      }

      .cls-6 {
        fill: url(#Namnlös_övertoning_19-10);
      }

      .cls-7 {
        fill: #f7f5f5;
      }

      .cls-8, .cls-9 {
        fill: #fff;
      }

      .cls-2 {
        stroke-width: 7px;
      }

      .cls-2, .cls-3 {
        stroke: #fff;
      }

      .cls-10 {
        fill: url(#Namnlös_övertoning_19-8);
      }

      .cls-9 {
        fill-rule: evenodd;
      }

      .cls-11 {
        fill: url(#Namnlös_övertoning_22-3);
      }

      .cls-12 {
        fill: url(#Namnlös_övertoning_23);
      }

      .cls-13 {
        fill: url(#Namnlös_övertoning_19-11);
      }

      .cls-14 {
        fill: url(#Namnlös_övertoning_9-3);
      }

      .cls-15 {
        fill: url(#Namnlös_övertoning_9-2);
      }

      .cls-16 {
        fill: url(#Namnlös_övertoning_22-5);
      }

      .cls-17 {
        fill: url(#Namnlös_övertoning_19-9);
      }

      .cls-18 {
        fill: url(#Namnlös_övertoning_22-2);
      }

      .cls-19 {
        fill: url(#Namnlös_övertoning_22-4);
      }

      .cls-3 {
        stroke-width: 3px;
      }

      .cls-20 {
        fill: url(#Namnlös_övertoning_10);
      }

      .cls-21 {
        fill: url(#Namnlös_övertoning_15);
      }

      .cls-22 {
        fill: url(#Namnlös_övertoning_9);
      }

      .cls-4 {
        fill: url(#Namnlös_övertoning_19-5);
        stroke: url(#Namnlös_övertoning_19-6);
      }

      .cls-23 {
        fill: #05053a;
      }

      .cls-24 {
        fill: #c0068d;
      }

      .cls-25 {
        fill: url(#Namnlös_övertoning_22-6);
      }

      .cls-26 {
        fill: url(#Namnlös_övertoning_19-2);
      }

      .cls-27 {
        fill: url(#Namnlös_övertoning_22);
      }

      .cls-28 {
        fill: url(#Namnlös_övertoning_19);
      }

      .cls-29 {
        fill: url(#Namnlös_övertoning_19-3);
      }

      .cls-30 {
        fill: url(#Namnlös_övertoning_24);
      }

      .cls-31 {
        fill: #fcfcfc;
      }

      .cls-32 {
        fill: url(#Namnlös_övertoning_19-7);
      }
    </style>
    <linearGradient id="Namnlös_övertoning_19" data-name="Namnlös övertoning 19" x1="677.56" y1="2339.91" x2="705.85" y2="2339.91" gradientTransform="translate(0 3550) scale(1 -1)" gradientUnits="userSpaceOnUse">
      <stop offset=".11" stop-color="#c0068d"/>
      <stop offset=".81" stop-color="#1a002f"/>
      <stop offset=".91" stop-color="#1c0031"/>
      <stop offset="1" stop-color="#1c0030"/>
    </linearGradient>
    <linearGradient id="Namnlös_övertoning_19-2" data-name="Namnlös övertoning 19" x1="481.46" y1="2212.38" x2="535.12" y2="2212.38" xlink:href="#Namnlös_övertoning_19"/>
    <linearGradient id="Namnlös_övertoning_19-3" data-name="Namnlös övertoning 19" x1="386.23" y1="2361.11" x2="457.19" y2="2361.11" xlink:href="#Namnlös_övertoning_19"/>
    <linearGradient id="Namnlös_övertoning_19-4" data-name="Namnlös övertoning 19" x1="435.56" y1="2219.85" x2="541.02" y2="2219.85" xlink:href="#Namnlös_övertoning_19"/>
    <linearGradient id="Namnlös_övertoning_19-5" data-name="Namnlös övertoning 19" x1="551.57" y1="2171.95" x2="630.34" y2="2171.95" xlink:href="#Namnlös_övertoning_19"/>
    <linearGradient id="Namnlös_övertoning_19-6" data-name="Namnlös övertoning 19" x1="549.57" y1="2171.95" x2="632.34" y2="2171.95" xlink:href="#Namnlös_övertoning_19"/>
    <linearGradient id="Namnlös_övertoning_9" data-name="Namnlös övertoning 9" x1="659.5" y1="2165.28" x2="703" y2="2165.28" gradientTransform="translate(0 3550) scale(1 -1)" gradientUnits="userSpaceOnUse">
      <stop offset="0" stop-color="#c0068d"/>
      <stop offset="1" stop-color="#1a002d"/>
    </linearGradient>
    <linearGradient id="Namnlös_övertoning_9-2" data-name="Namnlös övertoning 9" x1="608.16" y1="2315.84" x2="651.69" y2="2315.84" xlink:href="#Namnlös_övertoning_9"/>
    <linearGradient id="Namnlös_övertoning_9-3" data-name="Namnlös övertoning 9" x1="575.11" y1="2843.15" x2="720.36" y2="2843.15" xlink:href="#Namnlös_övertoning_9"/>
    <linearGradient id="Namnlös_övertoning_10" data-name="Namnlös övertoning 10" x1="670.03" y1="2533.91" x2="755.89" y2="2533.91" gradientTransform="translate(0 3550) scale(1 -1)" gradientUnits="userSpaceOnUse">
      <stop offset=".11" stop-color="#c0068d"/>
      <stop offset=".99" stop-color="#05053a"/>
    </linearGradient>
    <linearGradient id="Namnlös_övertoning_22" data-name="Namnlös övertoning 22" x1="712.49" y1="2615.91" x2="769.95" y2="2615.91" gradientTransform="translate(0 3550) scale(1 -1)" gradientUnits="userSpaceOnUse">
      <stop offset=".33" stop-color="#a2057c"/>
      <stop offset="1" stop-color="#7c056c"/>
    </linearGradient>
    <linearGradient id="Namnlös_övertoning_19-7" data-name="Namnlös övertoning 19" x1="449.73" y1="2763.05" x2="474.13" y2="2763.05" xlink:href="#Namnlös_övertoning_19"/>
    <linearGradient id="Namnlös_övertoning_19-8" data-name="Namnlös övertoning 19" x1="418.6" y1="2658.9" x2="438.81" y2="2658.9" xlink:href="#Namnlös_övertoning_19"/>
    <linearGradient id="Namnlös_övertoning_19-9" data-name="Namnlös övertoning 19" x1="346.29" y1="2536.7" x2="510.58" y2="2536.7" xlink:href="#Namnlös_övertoning_19"/>
    <radialGradient id="Namnlös_övertoning_15" data-name="Namnlös övertoning 15" cx="676.61" cy="2015.78" fx="676.61" fy="2015.78" r="63" gradientTransform="translate(-.6 3536.38) scale(.98 -1)" gradientUnits="userSpaceOnUse">
      <stop offset=".77" stop-color="#a2057c"/>
      <stop offset="1" stop-color="#05053a"/>
    </radialGradient>
    <linearGradient id="Namnlös_övertoning_22-2" data-name="Namnlös övertoning 22" x1="680.49" y1="1979.72" x2="887.32" y2="1979.72" xlink:href="#Namnlös_övertoning_22"/>
    <linearGradient id="Namnlös_övertoning_22-3" data-name="Namnlös övertoning 22" x1="192.68" y1="2275.15" x2="318.54" y2="2275.15" xlink:href="#Namnlös_övertoning_22"/>
    <linearGradient id="Namnlös_övertoning_19-10" data-name="Namnlös övertoning 19" x1="602.9" y1="2337.82" x2="691.47" y2="2337.82" xlink:href="#Namnlös_övertoning_19"/>
    <linearGradient id="Namnlös_övertoning_19-11" data-name="Namnlös övertoning 19" x1="614.15" y1="2924.78" x2="658.05" y2="2924.78" xlink:href="#Namnlös_övertoning_19"/>
    <linearGradient id="Namnlös_övertoning_22-4" data-name="Namnlös övertoning 22" x1="521.46" y1="3083.2" x2="647.32" y2="3083.2" xlink:href="#Namnlös_övertoning_22"/>
    <linearGradient id="Namnlös_övertoning_22-5" data-name="Namnlös övertoning 22" x1="283.41" y1="3104.62" x2="490.24" y2="3104.62" xlink:href="#Namnlös_övertoning_22"/>
    <linearGradient id="Namnlös_övertoning_22-6" data-name="Namnlös övertoning 22" x1="691.22" y1="2868.98" x2="801.46" y2="2868.98" xlink:href="#Namnlös_övertoning_22"/>
    <linearGradient id="Namnlös_övertoning_23" data-name="Namnlös övertoning 23" x1="436.88" y1="2669.55" x2="675.87" y2="2669.55" gradientTransform="translate(0 3550) scale(1 -1)" gradientUnits="userSpaceOnUse">
      <stop offset="0" stop-color="#c0068d"/>
      <stop offset="1" stop-color="#05053a"/>
    </linearGradient>
    <linearGradient id="Namnlös_övertoning_24" data-name="Namnlös övertoning 24" x1="334.45" y1="2529.14" x2="674.54" y2="2529.14" gradientTransform="translate(0 3550) scale(1 -1)" gradientUnits="userSpaceOnUse">
      <stop offset=".06" stop-color="#c0068d"/>
      <stop offset=".32" stop-color="#c0068d"/>
      <stop offset=".99" stop-color="#1c0030"/>
    </linearGradient>
    <linearGradient id="Namnlös_övertoning_25" data-name="Namnlös övertoning 25" x1="501.12" y1="2332.28" x2="603.81" y2="2332.28" gradientTransform="translate(0 3550) scale(1 -1)" gradientUnits="userSpaceOnUse">
      <stop offset=".11" stop-color="#c0068d"/>
      <stop offset="1" stop-color="#05053a"/>
    </linearGradient>
  </defs>
  <g id="Lager_1-2" data-name="Lager 1">
    <g id="Lager_20" data-name="Lager 20">
      <rect class="cls-23" x="0" width="1080" height="1920"/>
    </g>
    <g>
      <g id="Lager_19" data-name="Lager 19">
        <ellipse class="cls-28" cx="691.71" cy="1210.09" rx="14.15" ry="14.45"/>
      </g>
      <g id="Lager_18" data-name="Lager 18">
        <ellipse class="cls-26" cx="508.29" cy="1337.62" rx="26.83" ry="27.4"/>
      </g>
      <g id="Lager_17" data-name="Lager 17">
        <path class="cls-29" d="M394.63,1140.84c-8.68,7.17-10.63,23.61-5.85,34.87,3.32,7.87,9.85,13.15,14.63,16.94,9.66,7.77,13.07,5.78,16.59,10.96,7.32,10.76-4.39,23.61,1.95,31.88,5.95,7.77,24.98,7.87,32.2-1.99,6.93-9.57,0-24.71-.98-26.9-3.41-7.37-6.44-7.27-7.8-12.95-2.73-10.96,7.22-16.94,6.83-25.91-.68-17.64-40.78-40.65-57.56-26.9Z"/>
      </g>
      <g id="Lager_15" data-name="Lager 15">
        <ellipse class="cls-1" cx="488.29" cy="1330.15" rx="50.73" ry="51.81"/>
      </g>
      <g id="Lager_16" data-name="Lager 16">
        <path class="cls-4" d="M562.44,1322.18c-5.27,9.96,1.46,23.91,2.93,26.9,4,8.17,7.8,8.97,9.76,16.94,.49,1.89,2.93,11.56-1.95,18.93-4.39,6.78-10.54,4.78-15.61,9.96-8.88,9.07-8.39,33.08,4.88,43.84,9.17,7.37,24.98,8.97,34.15,2.99,2.73-1.79,6.05-4.98,9.76-3.99,3.8,1,3.9,5.28,7.8,6.97,4.78,2.09,13.27-.5,15.61-6.97s-2.83-13.55-7.8-15.94c-5.56-2.69-10.05,.9-12.68-1.99-3.12-3.49,2.63-9.86,0-15.94-2.93-6.97-12.68-3.79-17.56-9.96-6.05-7.67,3.02-19.73,7.8-47.83,2.83-16.64,4.2-25.61-.98-30.89-8.1-8.27-29.76-4.88-36.1,6.97Z"/>
      </g>
      <g id="Lager_13" data-name="Lager 13">
        <path class="cls-22" d="M672.2,1290.89c9.95,9.66,20.29,19.83,25.56,32.98,2.54,6.28,3.8,13.05,3.12,19.83-.68,6.78-3.32,13.55-6.63,19.63-6.73,12.26-16.49,22.52-23.22,34.77-6.34,11.56-10.05,24.41-11.61,37.46-1.76,14.75-.68,29.79,2.34,44.44,.39,1.89,3.22,1.1,2.83-.8-5.37-25.91-4.29-54.4,8.2-78.12,6.63-12.55,16.39-22.82,23.41-35.07,3.41-5.98,6.15-12.45,7.32-19.33,1.17-6.87,.49-13.75-1.66-20.33-4.98-15.24-16.39-26.7-27.51-37.56-1.46-1.39-3.51,.8-2.15,2.09h0Z"/>
        <path class="cls-15" d="M651.22,1208.79c-7.51,1.99-13.66,7.17-18.73,13.05-5.66,6.68-10.44,14.15-15.32,21.32-3.22,4.78-6.54,9.57-9.76,14.25-1.07,1.59,1.46,3.09,2.54,1.49,5.56-8.07,11.02-16.14,16.59-24.21,4.29-6.28,8.78-12.55,14.73-17.44,3.22-2.59,6.83-4.58,10.83-5.68,1.66-.4,.88-3.29-.88-2.79h0Z"/>
        <path class="cls-14" d="M589.56,663.08c-7.9-8.67-12.39-20.23-12.49-32.08-.1-11.86,4.2-22.62,11.51-31.19,3.61-4.18,7.8-7.57,12.59-10.26s9.66-4.68,14.34-7.17,8.98-5.28,12.29-9.27c3.02-3.59,4.98-7.97,6.24-12.55,2.54-9.37,2.34-19.43,5.76-28.6,1.56-4.18,4.29-8.27,8.1-10.66s8.29-2.79,12.49-1.99,8.1,2.89,10.93,6.08c3.71,4.18,4.68,10.16,3.9,15.74-1.85,12.75-10.93,22.62-15.12,34.57-7.61,21.42,8.39,39.36,13.76,58.98,1.27,4.78,1.95,9.76,1.17,14.65-.88,5.28-3.22,10.06-5.85,14.65-5.27,9.07-11.9,18.23-11.22,29.29,.68,11.96,8.39,21.92,15.61,30.69,7.51,9.07,16.49,19.63,16.29,32.18-.2,11.26-8.68,19.93-11.71,30.39-3.41,11.66,2.63,22.22,10.93,29.89,4.78,4.38,10.15,8.07,14.93,12.55,4,3.69,7.41,8.07,9.95,12.95,4.98,9.47,6.63,21.52-.78,30.19-7.41,8.67-19.41,11.26-29.85,13.75-13.56,3.19-27.22,5.68-41.07,7.17-6.63,.7-13.37,1.3-20.1,1.59-1.85,.1-1.85,3.09,0,2.99,14.15-.7,28.2-2.29,42.15-4.78,7.12-1.3,14.15-2.69,21.17-4.38,5.66-1.39,11.32-2.79,16.68-5.08,9.76-4.18,17.95-11.76,18.93-23.12,.98-10.96-4.59-21.82-11.61-29.79-8.39-9.47-20.88-15.14-26.93-26.8-2.83-5.48-3.22-11.46-1.27-17.34,1.76-5.38,4.88-10.16,7.32-15.14,2.44-4.98,4.39-10.46,4.2-16.24-.2-6.08-2.44-11.96-5.37-17.14-6.24-10.96-15.9-19.33-21.95-30.29-3.02-5.48-5.07-11.46-4.49-17.84,.49-5.68,2.93-10.86,5.66-15.64,5.27-9.27,11.71-18.13,11.71-29.39,0-10.56-4.78-20.33-9.07-29.69-4.29-9.47-8.98-19.53-8.1-30.19,1.17-13.15,10.83-23.41,15.12-35.37,3.71-10.36,3.22-22.52-6.44-29.29-7.02-4.88-17.37-5.68-24.49-.5-8,5.88-9.95,16.14-11.32,25.51-1.46,10.06-2.63,20.92-10.34,28.2-7.71,7.27-19.41,10.16-28.29,16.44-8.88,6.28-15.9,16.04-19.22,26.9-3.32,10.86-2.44,23.41,2.05,34.18,2.24,5.28,5.37,10.16,9.27,14.35,1.27,1.49,3.32-.7,2.05-2.09h0Z"/>
      </g>
      <g id="Lager_14" data-name="Lager 14">
        <path class="cls-20" d="M736.1,971.46c-11.22-1.1-23.41,5.98-23.41,5.98h0s-9.17-2.69-14.63-2.99c-6.83-.4-17.37,2.29-23.41,10.96-7.02,10.06-5.46,24.41,.98,31.88,4.98,5.78,8.98,2.99,15.61,8.97,9.76,8.77,4.98,18.23,13.66,26.9,6.54,6.48,18.05,9.96,28.29,5.98,9.27-3.59,16.49-13.05,16.59-21.92,.1-6.78-3.9-7.47-3.9-14.95,0-7.97,4.59-9.27,7.8-20.92,1.85-6.68,3.41-12.35,.98-17.93-3.22-7.47-12-11.26-18.54-11.96Z"/>
        <ellipse class="cls-27" cx="741.27" cy="934.09" rx="28.78" ry="29.39"/>
      </g>
      <g id="Lager_12" data-name="Lager 12">
        <path class="cls-24" d="M338.15,1103.28c-9.17,19.93-13.66,42.64-9.27,64.37,3.71,18.23,14.44,35.07,29.85,45.04,7.8,5.08,16.49,7.87,25.66,8.77,10.73,.9,21.76-.4,32.2,2.69,15.9,4.78,23.71,20.53,32,33.78,4,6.48,8.39,12.95,14.24,17.84,6.63,5.58,14.44,8.07,22.93,8.87,9.07,.9,18.63,.2,27.32,3.29,4.2,1.49,8,4.09,10.73,7.77s4.49,8.17,5.37,12.65c2.34,10.96,.2,22.12-.49,33.18-.59,10.26,.68,20.13,5.46,29.29,8.29,15.84,24.88,27,42.63,26.9,17.56-.1,35.02-10.46,43.32-26.4,8.29-15.94,6.73-36.27-3.02-51.21-2.44-3.69-5.27-6.97-8.49-9.86-1.46-1.2-3.51,.9-2.05,2.09,13.17,11.46,18.93,30.69,14.73,47.83-4.2,17.14-19.32,30.29-36.29,33.68-17.37,3.39-34.93-4.78-45.07-19.33-5.27-7.57-8.2-16.44-8.49-25.71-.29-11.36,2.34-22.62,1.56-33.88-.59-8.97-3.22-18.43-10.05-24.51-6.83-6.08-15.8-7.37-24.49-7.97-8.68-.6-18.15-.2-26.34-4.09-6.54-3.09-11.71-8.37-16-14.25-8.88-12.16-14.83-27.1-26.83-36.57-7.41-5.88-16.39-7.87-25.66-8.37-10.15-.6-20.49,.2-30.34-2.79-16.88-5.18-30.24-19.03-37.27-35.17-8.49-19.33-7.41-41.75-1.27-61.58,1.56-5.08,3.51-10.06,5.76-14.85,.98-1.79-1.56-3.29-2.34-1.49h0Z"/>
        <path class="cls-32" d="M473.17,771.99c-5.85,3.29-13.07,2.59-18.44,7.07-6.15,5.28-6.15,14.15-5.85,21.62,.1,1.89,3.02,1.89,2.93,0-.29-6.78-.59-15.54,5.56-19.93,5.07-3.59,11.8-3.19,17.27-6.18,1.66-.9,.2-3.49-1.46-2.59h0Z"/>
        <path class="cls-10" d="M437.76,862.65c-12.78,9.76-20.49,25.31-20.1,41.65,.1,4.98,.88,9.86,2.34,14.55,.59,1.79,3.41,1,2.83-.8-4.68-15.05-1.85-31.88,7.8-44.24,2.54-3.19,5.37-6.08,8.59-8.57,1.56-1.2,.1-3.79-1.46-2.59h0Z"/>
      </g>
      <g id="Lager_11" data-name="Lager 11">
        <path class="cls-17" d="M464.88,928.61c9.27,13.35,7.71,28.99,6.83,37.86-1.76,17.64-7.9,18.43-7.8,28.89,.29,23.71,32,28,42.93,56.79,7.71,20.23,3.41,48.12-11.71,60.78-27.61,23.12-89.46-5.68-95.61-35.87-3.71-18.33,15.02-28,8.78-50.81-4-14.45-18.05-34.37-20.49-37.86-3.51-5.08-6.44-8.47-8.78-14.95-4.2-11.46-1.07-17.04-5.85-21.92-5.37-5.48-11.61-.7-18.54-5.98-7.51-5.68-11.12-19.43-5.85-25.91,5.37-6.68,19.8-5.38,27.32,1,4.59,3.89,6.05,9.37,13.66,12.95,1.37,.6,5.27,2.49,6.83,1s-.78-4.88-.98-8.97c-.39-7.87,7.32-15.94,14.63-18.93,7.41-3.09,14.05-.8,24.39,2.99,12.59,4.58,22.93,8.27,30.24,18.93Z"/>
      </g>
      <g id="Lager_10" data-name="Lager 10">
        <ellipse class="cls-21" cx="659.51" cy="1527.93" rx="61.46" ry="62.77"/>
        <ellipse class="cls-18" cx="783.9" cy="1570.28" rx="103.41" ry="105.61"/>
        <ellipse class="cls-11" cx="255.61" cy="1274.85" rx="62.93" ry="64.27"/>
      </g>
      <g id="Lager_9" data-name="Lager 9">
        <path class="cls-6" d="M672.68,1194.64c-4.39,11.06-6.54,13.55-4.88,20.92,.88,3.79,.39,6.97,4.88,11.96,17.56,19.73,12.68,15.74,15.61,19.93,8,11.36-.2,34.28-12.68,41.05-10.54,5.78-21.46,8.77-43.9-4.98-15.02-9.17-25.76,4.18-28.29,0-2.24-3.79,2.54-10.26,20.49-34.97,15.8-21.62,23.71-32.68,23.41-38.96-.68-15.64-17.37-17.64-21.46-36.97-3.32-15.74,3.02-36.77,15.61-40.95,14.93-4.88,39.22,18.03,40,34.87,.2,5.48-2.73,13.05-8.78,28.1h0Z"/>
      </g>
      <g id="Lager_2" data-name="Lager 2">
        <ellipse class="cls-13" cx="636.1" cy="625.22" rx="21.95" ry="22.42"/>
        <ellipse class="cls-19" cx="584.39" cy="466.8" rx="62.93" ry="64.27"/>
        <ellipse class="cls-16" cx="386.83" cy="445.38" rx="103.41" ry="105.61"/>
        <ellipse class="cls-25" cx="746.34" cy="681.02" rx="55.12" ry="56.29"/>
      </g>
      <g id="Lager_4" data-name="Lager 4">
        <path class="cls-12" d="M585.85,659.6c-17.27,6.97-21.56,26.01-22.44,29.89-1.07,4.78-.39,5.48-.98,12.95-.39,5.48-2.24,29.39-12.68,43.84-8.39,11.66-16.68,9.37-32.2,18.93-22.34,13.85-37.37,38.86-41.95,59.78-5.27,24.01,6.83,26.4,11.71,74.73,3.12,30.79,5.37,53.11-6.83,73.73-10.83,18.33-20.88,14.85-32.2,34.87-3.02,5.28-20,35.17-5.85,63.77,11.41,23.02,35.02,29.19,38.05,29.89,16.88,4.09,38.15,1.1,50.73-11.96,10.34-10.76,6.83-20.03,19.51-30.89,2.63-2.19,16-13.75,28.29-9.96,10.44,3.19,8.88,14.15,24.39,29.89,6.63,6.68,14.44,14.65,26.34,16.94,11.22,2.19,27.8-.4,38.05-13.95,9.56-12.65,10.73-31.29,2.93-41.85-6.15-8.27-13.76-6.08-43.9-20.92-10.34-5.08-12.39-6.78-13.66-7.97-10.73-9.86-15.41-26.6-13.66-40.85,1.37-11.46,12.29-25.41,34.15-52.81,13.76-17.34,16.59-19.53,20.49-27.9,8.68-18.63,8.1-36.07,7.8-43.84-.29-7.57-2.83-48.72-30.24-71.74-6.05-5.08-10.24-6.78-12.68-12.95-4.88-12.45,3.22-29.29,9.76-42.84,3.41-7.07,3.8-6.58,4.88-9.96,3.32-10.76,3.02-28.7-9.76-40.85-9.85-9.37-24.88-13.25-38.05-7.97Z"/>
      </g>
      <g id="Lager_6" data-name="Lager 6">
        <path class="cls-30" d="M486.34,708.42c-14.44,.8-24.29,18.23-22.44,29.89,.98,5.98,4.2,5.88,6.83,12.95,5.07,13.75-1.17,30.99-10.73,40.85-7.12,7.37-10.34,4.58-17.56,10.96-13.66,12.06-19.41,37.56-11.71,55.8,6.93,16.54,18.93,13.05,34.15,33.88,4.1,5.58,15.71,21.52,16.59,43.84,.98,25.21-12.39,50.12-31.22,62.77-12.49,8.37-27.41,11.36-40,13.95-12.1,2.49-14.44,1.49-21.46,2.99-19.02,4.18-40.78,20.03-49.76,42.84-14.93,37.96,9.27,84.39,35.12,92.66,11.41,3.59,20-1.2,41.95,5.98,8.98,2.89,16.68,5.38,24.39,11.96,15.71,13.25,9.66,24.71,23.41,35.87,14.63,11.86,36.39,11.16,40.98,10.96,11.61-.4,13.56-3.39,19.51-1,13.07,5.28,18.83,26.1,18.54,41.85-.29,15.34-6.15,16.24-5.85,28.89,.39,14.95,9.27,35.77,29.27,43.84,17.66,7.07,38.34,1.89,49.76-10.96,9.95-11.16,10.34-25.21,10.73-38.86,.78-25.11-7.32-27.3-7.8-46.83-.78-36.07,25.85-74.73,42.93-92.66,3.32-3.49,8.1-8.07,10.73-15.94,4.1-12.06,1.66-26.8-9.76-46.83-25.85-45.63-53.27-40.15-61.46-68.75-7.8-27.5,15.51-39.85,4.88-76.72-1.17-4.09-8.1-28.3-22.44-30.89-6.54-1.2-8.78,3.19-17.56,2.99-11.71-.2-24.88-8.27-29.27-18.93-5.95-14.25,8.49-21.22,7.8-40.85-.78-22.22-19.71-22.22-34.15-59.78-6.63-17.24-12-31.29-6.83-45.83,2.15-6.08,5.56-10.76,3.9-16.94-2.24-8.17-12.2-14.45-21.46-13.95Z"/>
      </g>
      <g id="Lager_3" data-name="Lager 3">
        <path class="cls-5" d="M571.22,1154.79c-11.22,1.2-16.59,5.38-19.51,8.97-5.37,6.68-2.73,12.35-8.78,18.93-3.32,3.69-5.27,3.09-17.56,8.97-10.15,4.88-15.22,7.27-17.56,9.96-7.71,8.67-9.27,25.91-1.95,34.87,6.83,8.37,16.2,2.99,26.34,12.95,6.63,6.58,4.2,10.36,10.73,17.93,1.46,1.69,15.02,16.84,33.17,12.95,13.46-2.89,24.49-15.14,25.37-26.9,.78-10.76-7.61-13.55-7.8-29.89-.1-8.37,1.95-15.94,2.93-18.93,3.12-9.86,5.66-9.86,6.83-15.94,1.95-10.56-3.32-24.61-14.63-30.89-7.02-3.89-14.05-3.49-17.56-2.99Z"/>
      </g>
    </g>
  </g>
  <g>
    <g id="LOGO">
      <polyline id="Fill-1" class="cls-9" points="223.75 175.12 223.75 117.72 205.85 117.72 205.85 103.52 255.95 103.52 255.95 117.72 238.05 117.72 238.05 175.12 223.75 175.12"/>
      <polyline id="Fill-2" class="cls-9" points="151.95 170.02 137.85 170.02 137.85 99.92 141.65 99.92 177.25 140.22 177.25 101.52 191.55 101.52 191.55 171.52 187.75 171.52 151.95 132.72 151.95 170.02"/>
      <polygon id="Fill-3" class="cls-9" points="270.25 175.12 284.55 175.12 284.55 103.52 270.25 103.52 270.25 175.12"/>
      <path id="Fill-13" class="cls-9" d="M159.35,71.02v-14H84.15v78.7c0,53.6,26.9,70.8,70.9,94.4l4.3,2.3v-15.9l-.5-.3c-39.9-21.5-60.7-34.8-60.7-80.5V71.02h61.2"/>
      <g>
        <path class="cls-8" d="M224.05,184.02l-.8,6.9h-11v40.8h-6.7v-40.8h-11.8l.7-6.9h29.6Z"/>
        <path class="cls-8" d="M254.05,184.02l-.8,6.7h-17.1v13.2h16.2l-.8,6.7h-15.4v14.3h17.9l-.8,6.7h-23.8v-47.6h24.6Z"/>
        <path class="cls-8" d="M265.55,216.12h9.7v-12l6.2-1.4v13.3h4.2l-.8,6.4h-3.4v9.2h-6.2v-9.2h-16.5v-5.6l14.1-31h6.5l-13.8,30.3h0Z"/>
      </g>
    </g>
    <g id="Cloud">
      <path class="cls-3" d="M946.75,114.52h-.2c-3.8-7.5-10.1-13.4-18.3-16.3-8.2-2.8-16.9-2-24.7,1.6-2.7-14.9-13.5-26.9-28-29.1-18.8-2.8-36.5,11.7-39.8,32.5-.2,1.6-.4,3.1-.5,4.7-5.2-1.8-10.9-2.9-16.9-2.9-23,0-41.7,15.1-41.7,33.7s18.7,33.7,41.7,33.7c1,0,1.9-.1,2.9-.1h125.3c16,0,29-13,29-29,.2-15.9-12.8-28.8-28.8-28.8Z"/>
    </g>
    <g>
      <path class="cls-31" d="M470.05,159.02v-44.6c-2.5,2.2-8.2,5.1-11.1,5.8v-3.5c3.2-1.1,8-4.1,11.8-7.4h3.2v49.7h-3.9Z"/>
      <path class="cls-31" d="M487.45,120.82c.8-6.1,5.2-12,14.5-12s13.8,6.1,13.8,12.4-3.7,9.3-6.9,10.3v.1c5.2,1.6,9.1,5.6,9.1,12.8,0,8.3-5.2,15.4-16.2,15.4-10,0-15.1-6.5-16-13.1h3.9c1.2,5,5.2,9.5,12.4,9.5,8.5,0,11.8-5.7,11.8-11.7,0-7.9-5.2-11-12.4-11h-2.9v-3.5h2.3c7.5,0,10.9-3.1,10.9-9,0-5.2-3.6-8.8-9.9-8.8s-9.4,3.4-10.6,8.4h-3.8v.2Z"/>
      <path class="cls-31" d="M528.95,131.22v-9.7h3.6v9.7h-3.6Zm0,27.8v-9.7h3.6v9.7h-3.6Z"/>
      <path class="cls-31" d="M544.85,120.82c.8-6.1,5.2-12,14.5-12s13.8,6.1,13.8,12.4-3.7,9.3-6.9,10.3v.1c5.2,1.6,9.1,5.6,9.1,12.8,0,8.3-5.2,15.4-16.2,15.4-10,0-15.1-6.5-16-13.1h3.9c1.2,5,5.2,9.5,12.4,9.5,8.5,0,11.8-5.7,11.8-11.7,0-7.9-5.2-11-12.4-11h-2.9v-3.5h2.3c7.5,0,10.9-3.1,10.9-9,0-5.2-3.6-8.8-9.9-8.8s-9.4,3.4-10.6,8.4h-3.8v.2Z"/>
      <path class="cls-31" d="M616.15,134.02c0,11.3-2.9,25.9-16.1,25.9s-16-13.4-16-25.6,3.4-25.6,16.3-25.6c12.8,.1,15.8,13.6,15.8,25.3Zm-28,.4c0,9.6,2,21.9,11.8,21.9s12-11.8,12-22.3c0-9.4-2-21.6-11.7-21.6-10.2,0-12.1,11.1-12.1,22Z"/>
    </g>
    <g>
      <path class="cls-7" d="M402.25,189.22h-10.6v-2.2h23.7v2.2h-10.6v29.2h-2.5v-29.2Z"/>
      <path class="cls-7" d="M437.55,207.12c0,6.3-3.5,11.8-10.2,11.8-6.1,0-9.9-5-9.9-11.8,0-6.4,3.6-11.8,10.1-11.8,6,.1,10,4.8,10,11.8Zm-17.7,.1c0,5.4,2.9,9.7,7.6,9.7s7.6-4,7.6-9.7c0-5.3-2.7-9.7-7.7-9.7s-7.5,4.3-7.5,9.7Z"/>
      <path class="cls-7" d="M443.05,202.02v-6.1h2.2c0,.7,.1,2.2,.1,5,1.3-3.4,4.2-5.4,7.8-5.6v2.4c-4.7,.3-7.8,3.6-7.8,8.9v11.7h-2.2v-16.3h-.1Z"/>
      <path class="cls-7" d="M457.65,212.22c.8,2.9,2.8,4.7,6.4,4.7,4,0,5.6-1.8,5.6-4.4s-1.1-3.8-6.1-5c-5.8-1.4-7.2-3.1-7.2-6.1s2.3-6,7.4-6,7.5,3.1,7.9,6.3h-2.2c-.4-1.9-1.9-4.2-5.7-4.2s-5,1.9-5,3.7c0,2.1,1.1,3.1,5.5,4.2,6.3,1.5,7.9,3.6,7.9,7,0,4.1-3.3,6.6-8.1,6.6-5.1,0-8-2.7-8.6-6.8h2.2Z"/>
      <path class="cls-7" d="M495.05,185.32v33.2h-2.2c-.1-.5-.1-2.7-.1-3.8-1.1,2.7-3.6,4.3-7.6,4.3-5.8,0-9.4-4.8-9.4-11.5s3.8-12.1,9.9-12.1c4.5,0,6.3,1.9,7,3.4v-13.5h2.4Zm-16.8,22.1c0,6.2,3.2,9.5,7.1,9.5,5.9,0,7.6-4.1,7.6-10.2s-1.4-9.1-7.2-9.1c-4.5-.1-7.5,3.5-7.5,9.8Z"/>
      <path class="cls-7" d="M517.85,214.12c0,2,.2,3.6,.3,4.3h-2.2c-.2-.5-.3-1.5-.4-3.5-.8,1.7-2.7,4-7.4,4-5.2,0-7.5-3.4-7.5-6.8,0-4.9,3.8-7.2,10.6-7.2h4.3v-2.2c0-2.2-.7-5.3-5.8-5.3-4.5,0-5.2,2.4-5.7,4.2h-2.2c.3-2.5,1.8-6.3,8-6.3,5.1,0,8,2.2,8,7.1v11.7h0Zm-2.2-7.2h-4.4c-5,0-8.1,1.3-8.1,5.2,0,2.8,2,4.8,5.2,4.8,6.4,0,7.3-4.3,7.3-9.1v-.9Z"/>
      <path class="cls-7" d="M542.45,216.92c0,7.2-3.2,11-9.7,11-5.8,0-8.3-3.3-8.8-6.7h2.3c.8,3.1,3.4,4.6,6.6,4.6,5.8,0,7.5-3.8,7.5-9.5v-2.3c-1.2,2.9-3.4,4.5-7.5,4.5-5.3,0-9.3-4.3-9.3-11.2,0-7.6,4.3-11.8,9.6-11.8,4.6,0,6.6,2.2,7.2,4,0-1.3,.1-2.9,.1-3.4h2.1c0,.8-.1,4.4-.1,6.5v14.3h0Zm-16.6-9.8c0,5.4,2.8,9.2,7.2,9.2,5.6,0,7.3-3.7,7.3-9.6s-1.8-9.2-7.2-9.2c-5.2,0-7.3,4.5-7.3,9.6Z"/>
      <path class="cls-7" d="M559.95,218.42v-.1c0-3.7,3.1-8.3,9-12.9,5.1-4,6.4-5.2,6.4-9,0-3.2-1.8-6-6.1-6-4,0-6.2,1.9-6.9,6.3h-2.3c.6-5,3.7-8.4,9.2-8.4,6,0,8.5,4.1,8.5,8.1,0,4.6-1.9,6.1-7.4,10.6-4.4,3.6-7,6.4-7.9,9.3h16.6l-.4,2.2h-18.7v-.1Z"/>
      <path class="cls-7" d="M582.75,218.42v-.1c0-3.7,3.1-8.3,9-12.9,5.1-4,6.4-5.2,6.4-9,0-3.2-1.8-6-6.1-6-4,0-6.2,1.9-6.9,6.3h-2.3c.6-5,3.7-8.4,9.2-8.4,6,0,8.5,4.1,8.5,8.1,0,4.6-1.9,6.1-7.4,10.6-4.4,3.6-7,6.4-7.9,9.3h16.6l-.4,2.2h-18.7v-.1Z"/>
      <path class="cls-7" d="M619.75,210.02c.9,4.2,3.7,6.7,8.9,6.7,5.8,0,8-2.9,8-6.3,0-3.6-1.6-5.8-8.5-7.5-6.7-1.7-9.5-3.8-9.5-8.4,0-4.1,3-8,9.8-8s9.9,4.2,10.3,8.1h-2.5c-.7-3.4-2.9-5.8-7.9-5.8-4.5,0-7,2.1-7,5.6s2.1,4.8,7.9,6.3c8.9,2.2,10.2,5.8,10.2,9.5,0,4.6-3.4,8.6-10.7,8.6-7.9,0-10.8-4.6-11.3-8.8h2.3Z"/>
      <path class="cls-7" d="M645.65,207.42c0,5.8,3,9.4,7.3,9.4s5.7-2.4,6.5-4.2h2.3c-.9,3-3.3,6.3-8.9,6.3-6.8,0-9.5-5.9-9.5-11.6,0-6.4,3.2-12,9.8-12s9.1,6,9.1,10.2v1.8h-16.6v.1Zm14.3-1.9c0-4.5-2.5-8-6.9-8s-6.8,3.2-7.2,8h14.1Z"/>
      <path class="cls-7" d="M670.05,215.12v12.3h-2.2v-31.5h2.2c.1,.9,.1,2.2,.1,4,1.4-2.7,3.9-4.6,7.9-4.6,5.3,0,9,4.5,9,11.2,0,8.1-4.3,12.4-9.8,12.4-4,.1-6.1-1.7-7.2-3.8Zm14.5-8.4c0-5.2-2.5-9.1-7-9.1-5.4,0-7.7,3.4-7.7,9.5s1.8,9.8,7.4,9.8c4.7-.1,7.3-4,7.3-10.2Z"/>
    </g>
    <line class="cls-2" x1="1025.35" y1="277.22" x2="54.55" y2="277.22"/>
    <line class="cls-2" x1="1025.35" y1="1746.72" x2="54.55" y2="1746.72"/>
    <g>
      <path class="cls-31" d="M414.65,1805.32c1.3,5.6,5,8.9,11.9,8.9,7.7,0,10.6-3.8,10.6-8.4s-2.1-7.7-11.3-10c-8.9-2.2-12.7-5.1-12.7-11.2,0-5.5,4-10.7,13-10.7s13.1,5.6,13.7,10.7h-3.4c-1-4.5-3.9-7.7-10.5-7.7-6.1,0-9.4,2.8-9.4,7.5s2.8,6.4,10.5,8.3c11.8,2.9,13.6,7.7,13.6,12.7,0,6.2-4.5,11.5-14.2,11.5-10.5,0-14.3-6.1-15.1-11.8h3.3v.2Z"/>
      <path class="cls-31" d="M444.15,1786.62h5.6v-9.4h3v9.4h7.1v2.8h-7.1v19.5c0,3.4,.7,5.3,3.6,5.3,.9,0,2.2-.1,3.1-.4v2.6c-1,.4-2.5,.5-3.7,.5-3.8,0-6-1.9-6-6.7v-20.9h-5.6v-2.7Z"/>
      <path class="cls-31" d="M488.45,1807.82c0,2.9,.1,7.6,.1,8.8h-2.9c-.1-.8-.2-2.8-.2-5.2-1.3,3.5-4.3,5.9-9.7,5.9-4.3,0-9.8-1.7-9.8-10.9v-19.9h2.9v19.1c0,4.4,1.4,8.6,7.3,8.6,6.7,0,9.2-3.8,9.2-12.4v-15.4h3v21.4h.1Z"/>
      <path class="cls-31" d="M521.45,1772.32v35.6c0,2.9,0,5.6,.1,8.6h-2.9c-.1-.7-.2-3.5-.2-5-1.5,3.7-4.9,5.8-10.1,5.8-7.8,0-12.5-6.4-12.5-15.4s5.1-16.1,13.3-16.1c6,0,8.4,2.6,9.3,4.5v-18h3Zm-22.4,29.5c0,8.2,4.3,12.7,9.4,12.7,7.9,0,10.1-5.5,10.1-13.6s-1.9-12.2-9.5-12.2c-6,0-10,4.7-10,13.1Z"/>
      <path class="cls-31" d="M531.95,1801.92c.1,7.7,4,12.5,9.7,12.5s7.6-3.2,8.6-5.6h3.1c-1.3,4-4.4,8.5-11.8,8.5-9.1,0-12.7-7.9-12.7-15.5,0-8.6,4.3-16,13-16,9.2,0,12.2,8,12.2,13.6,0,.8,0,1.7-.1,2.5h-22Zm19-2.6c-.1-5.9-3.3-10.6-9.2-10.6-6.2,0-9,4.3-9.7,10.6h18.9Z"/>
      <path class="cls-31" d="M561.35,1794.12c0-2.6,0-5.2-.1-7.6h2.9c.1,1,.2,4.9,.1,5.7,1.3-3.1,3.8-6.4,10-6.4,5.3,0,10.1,3,10.1,11.3v19.4h-3v-19c0-5.3-2.2-8.8-7.4-8.8-7.1,0-9.6,5.9-9.6,12.5v15.3h-3v-22.4Z"/>
      <path class="cls-31" d="M589.75,1786.62h5.6v-9.4h3v9.4h7.1v2.8h-7.1v19.5c0,3.4,.7,5.3,3.6,5.3,.9,0,2.2-.1,3.1-.4v2.6c-1,.4-2.5,.5-3.7,.5-3.8,0-6-1.9-6-6.7v-20.9h-5.6v-2.7h0Z"/>
      <path class="cls-31" d="M612.25,1801.92c.1,7.7,4,12.5,9.7,12.5s7.6-3.2,8.6-5.6h3.1c-1.3,4-4.4,8.5-11.8,8.5-9.1,0-12.7-7.9-12.7-15.5,0-8.6,4.3-16,13-16,9.2,0,12.2,8,12.2,13.6,0,.8,0,1.7-.1,2.5h-22Zm19-2.6c-.1-5.9-3.3-10.6-9.2-10.6-6.2,0-9,4.3-9.7,10.6h18.9Z"/>
      <path class="cls-31" d="M641.75,1794.12c0-2.6,0-5.2-.1-7.6h2.9c.1,1,.2,4.9,.1,5.7,1.3-3.1,3.8-6.4,10-6.4,5.3,0,10.1,3,10.1,11.3v19.4h-3v-19c0-5.3-2.2-8.8-7.4-8.8-7.1,0-9.6,5.9-9.6,12.5v15.3h-3v-22.4Z"/>
    </g>
    <rect class="cls-3" x="60.25" y="368.72" width="435.4" height="1298"/>
    <rect class="cls-3" x="566.35" y="368.72" width="459.1" height="372"/>
    <rect class="cls-3" x="566.35" y="825.92" width="459.1" height="372"/>
    <rect class="cls-3" x="566.35" y="1293.82" width="459.1" height="372"/>
  </g>
</svg>