<?xml version="1.0" encoding="utf-8"?>
<!-- Generator: Adobe Illustrator 26.5.0, SVG Export Plug-In . SVG Version: 6.00 Build 0)  -->
<svg version="1.1" id="Lager_1" xmlns="http://www.w3.org/2000/svg" xmlns:xlink="http://www.w3.org/1999/xlink" x="0px" y="0px"
	 viewBox="0 0 1107 1927" style="enable-background:new 0 0 1107 1927;" xml:space="preserve">
<style type="text/css">
	.st0{fill:#05053A;}
	.st1{fill:url(#SVGID_1_);}
	.st2{fill:url(#SVGID_00000066512196017575433890000001065680149278832826_);}
	.st3{fill:url(#SVGID_00000008844921733819712830000012708046245561236379_);}
	.st4{fill:none;stroke:url(#SVGID_00000072263407821026016500000003526942110884772490_);stroke-width:4;stroke-miterlimit:10;}
	
		.st5{fill:url(#SVGID_00000167389124460764611960000015988645009046152627_);stroke:url(#SVGID_00000105396572427270473670000013214524013078771091_);stroke-width:4;stroke-miterlimit:10;}
	.st6{fill:url(#SVGID_00000024717774245912077210000014978271725188409240_);}
	.st7{fill:url(#SVGID_00000138567239061545486430000006565620094381606838_);}
	.st8{fill:url(#SVGID_00000049910473378895623380000007248554426735554198_);}
	.st9{fill:url(#SVGID_00000046318386546316919020000017330330264633161372_);}
	.st10{fill:url(#SVGID_00000013884683301632594640000011606554491009406371_);}
	.st11{fill:#C0068D;}
	.st12{fill:url(#SVGID_00000102507658247756227640000006945773217048984761_);}
	.st13{fill:url(#SVGID_00000091694816126125262670000004928581523663922617_);}
	.st14{fill:url(#SVGID_00000025415183758036948210000008904189172042234800_);}
	.st15{fill:url(#SVGID_00000130615537117075360410000000005015081633131706_);}
	.st16{fill:url(#SVGID_00000047021468714447298550000007299110347520686738_);}
	.st17{fill:url(#SVGID_00000095308934977145491480000016089612144387792036_);}
	.st18{fill:url(#SVGID_00000026150220711676380760000009320384696178347153_);}
	.st19{fill:url(#SVGID_00000085223931384743408700000004909465207886572193_);}
	.st20{fill:url(#SVGID_00000118384306562278196190000012334613368890251651_);}
	.st21{fill:url(#SVGID_00000130628875107617364220000010374192784199403187_);}
	.st22{fill:url(#SVGID_00000072252674033044016710000012733270332568425918_);}
	.st23{fill:url(#SVGID_00000013871695038384813620000010859408625246063798_);}
	.st24{fill:url(#SVGID_00000119079277821317776980000005904989599702502034_);}
	.st25{fill:url(#SVGID_00000054253068820067917110000001533973238047177405_);}
	.st26{fill-rule:evenodd;clip-rule:evenodd;fill:#FFFFFF;}
	.st27{fill:#FFFFFF;}
	.st28{fill:none;stroke:#FFFFFF;stroke-width:3;stroke-miterlimit:10;}
	.st29{display:none;}
	.st30{display:inline;fill:none;stroke:#FFFFFF;stroke-width:3;stroke-miterlimit:10;}
	.st31{fill:#FCFCFC;}
	.st32{fill:#F7F5F5;}
	.st33{fill:none;stroke:#FFFFFF;stroke-width:7;stroke-miterlimit:10;}
</style>
<g id="Lager_1_00000119116452516590321230000005118327476739384204_">
	<g id="Lager_20">
		<rect class="st0" width="1107" height="1927"/>
	</g>
	<g id="Lager_19">
		
			<linearGradient id="SVGID_1_" gradientUnits="userSpaceOnUse" x1="698" y1="-413.5" x2="727" y2="-413.5" gradientTransform="matrix(1 0 0 1 0 1628)">
			<stop  offset="0.11" style="stop-color:#C0068D"/>
			<stop  offset="0.81" style="stop-color:#1A002F"/>
			<stop  offset="0.91" style="stop-color:#1C0031"/>
			<stop  offset="1" style="stop-color:#1C0030"/>
		</linearGradient>
		<circle class="st1" cx="712.5" cy="1214.5" r="14.5"/>
	</g>
	<g id="Lager_18">
		
			<linearGradient id="SVGID_00000073686075726357381590000004657984267252861322_" gradientUnits="userSpaceOnUse" x1="497" y1="-285.5" x2="552" y2="-285.5" gradientTransform="matrix(1 0 0 1 0 1628)">
			<stop  offset="0.11" style="stop-color:#C0068D"/>
			<stop  offset="0.81" style="stop-color:#1A002F"/>
			<stop  offset="0.91" style="stop-color:#1C0031"/>
			<stop  offset="1" style="stop-color:#1C0030"/>
		</linearGradient>
		<circle style="fill:url(#SVGID_00000073686075726357381590000004657984267252861322_);" cx="524.5" cy="1342.5" r="27.5"/>
	</g>
	<g id="Lager_17">
		
			<linearGradient id="SVGID_00000091001107253550996530000004243516667927206016_" gradientUnits="userSpaceOnUse" x1="399.3902" y1="-434.774" x2="472.1198" y2="-434.774" gradientTransform="matrix(1 0 0 1 0 1628)">
			<stop  offset="0.11" style="stop-color:#C0068D"/>
			<stop  offset="0.81" style="stop-color:#1A002F"/>
			<stop  offset="0.91" style="stop-color:#1C0031"/>
			<stop  offset="1" style="stop-color:#1C0030"/>
		</linearGradient>
		<path style="fill:url(#SVGID_00000091001107253550996530000004243516667927206016_);" d="M408,1145c-8.9,7.2-10.9,23.7-6,35
			c3.4,7.9,10.1,13.2,15,17c9.9,7.8,13.4,5.8,17,11c7.5,10.8-4.5,23.7,2,32c6.1,7.8,25.6,7.9,33-2c7.1-9.6,0-24.8-1-27
			c-3.5-7.4-6.6-7.3-8-13c-2.8-11,7.4-17,7-26C466.3,1154.3,425.2,1131.2,408,1145z"/>
	</g>
	<g id="Lager_15">
		
			<linearGradient id="SVGID_00000065071272783321932520000002852366922868054405_" gradientUnits="userSpaceOnUse" x1="450" y1="-293" x2="558" y2="-293" gradientTransform="matrix(1 0 0 1 0 1628)">
			<stop  offset="0.11" style="stop-color:#C0068D"/>
			<stop  offset="0.81" style="stop-color:#1A002F"/>
			<stop  offset="0.91" style="stop-color:#1C0031"/>
			<stop  offset="1" style="stop-color:#1C0030"/>
		</linearGradient>
		
			<circle style="fill:none;stroke:url(#SVGID_00000065071272783321932520000002852366922868054405_);stroke-width:4;stroke-miterlimit:10;" cx="504" cy="1335" r="52"/>
	</g>
	<g id="Lager_16">
		
			<linearGradient id="SVGID_00000000915871244986412530000015456972166666651531_" gradientUnits="userSpaceOnUse" x1="568.8618" y1="-244.9287" x2="649.5952" y2="-244.9287" gradientTransform="matrix(1 0 0 1 0 1628)">
			<stop  offset="0.11" style="stop-color:#C0068D"/>
			<stop  offset="0.81" style="stop-color:#1A002F"/>
			<stop  offset="0.91" style="stop-color:#1C0031"/>
			<stop  offset="1" style="stop-color:#1C0030"/>
		</linearGradient>
		
			<linearGradient id="SVGID_00000106849023111830248690000018219324704387016112_" gradientUnits="userSpaceOnUse" x1="566.8618" y1="-244.9287" x2="651.5952" y2="-244.9287" gradientTransform="matrix(1 0 0 1 0 1628)">
			<stop  offset="0.11" style="stop-color:#C0068D"/>
			<stop  offset="0.81" style="stop-color:#1A002F"/>
			<stop  offset="0.91" style="stop-color:#1C0031"/>
			<stop  offset="1" style="stop-color:#1C0030"/>
		</linearGradient>
		
			<path style="fill:url(#SVGID_00000000915871244986412530000015456972166666651531_);stroke:url(#SVGID_00000106849023111830248690000018219324704387016112_);stroke-width:4;stroke-miterlimit:10;" d="
			M580,1327c-5.4,10,1.5,24,3,27c4.1,8.2,8,9,10,17c0.5,1.9,3,11.6-2,19c-4.5,6.8-10.8,4.8-16,10c-9.1,9.1-8.6,33.2,5,44
			c9.4,7.4,25.6,9,35,3c2.8-1.8,6.2-5,10-4c3.9,1,4,5.3,8,7c4.9,2.1,13.6-0.5,16-7s-2.9-13.6-8-16c-5.7-2.7-10.3,0.9-13-2
			c-3.2-3.5,2.7-9.9,0-16c-3-7-13-3.8-18-10c-6.2-7.7,3.1-19.8,8-48c2.9-16.7,4.3-25.7-1-31C608.7,1311.7,586.5,1315.1,580,1327z"/>
	</g>
	<g id="Lager_13">
		
			<linearGradient id="SVGID_00000137815061819435060190000006134379742236499339_" gradientUnits="userSpaceOnUse" x1="679.49" y1="-238.2316" x2="724.08" y2="-238.2316" gradientTransform="matrix(1 0 0 1 0 1628)">
			<stop  offset="0" style="stop-color:#C0068D"/>
			<stop  offset="1" style="stop-color:#1A002D"/>
		</linearGradient>
		<path style="fill:url(#SVGID_00000137815061819435060190000006134379742236499339_);" d="M692.5,1295.6
			c10.2,9.7,20.8,19.9,26.2,33.1c2.6,6.3,3.9,13.1,3.2,19.9s-3.4,13.6-6.8,19.7c-6.9,12.3-16.9,22.6-23.8,34.9
			c-6.5,11.6-10.3,24.5-11.9,37.6c-1.8,14.8-0.7,29.9,2.4,44.6c0.4,1.9,3.3,1.1,2.9-0.8c-5.5-26-4.4-54.6,8.4-78.4
			c6.8-12.6,16.8-22.9,24-35.2c3.5-6,6.3-12.5,7.5-19.4s0.5-13.8-1.7-20.4c-5.1-15.3-16.8-26.8-28.2-37.7
			C693.2,1292.1,691.1,1294.3,692.5,1295.6L692.5,1295.6L692.5,1295.6z"/>
		
			<linearGradient id="SVGID_00000041991436829554608000000004167696326451149701_" gradientUnits="userSpaceOnUse" x1="626.86" y1="-389.3369" x2="671.48" y2="-389.3369" gradientTransform="matrix(1 0 0 1 0 1628)">
			<stop  offset="0" style="stop-color:#C0068D"/>
			<stop  offset="1" style="stop-color:#1A002D"/>
		</linearGradient>
		<path style="fill:url(#SVGID_00000041991436829554608000000004167696326451149701_);" d="M671,1213.2c-7.7,2-14,7.2-19.2,13.1
			c-5.8,6.7-10.7,14.2-15.7,21.4c-3.3,4.8-6.7,9.6-10,14.3c-1.1,1.6,1.5,3.1,2.6,1.5c5.7-8.1,11.3-16.2,17-24.3
			c4.4-6.3,9-12.6,15.1-17.5c3.3-2.6,7-4.6,11.1-5.7C673.6,1215.6,672.8,1212.7,671,1213.2L671,1213.2L671,1213.2z"/>
		
			<linearGradient id="SVGID_00000045596073559582473610000015711151648455831453_" gradientUnits="userSpaceOnUse" x1="592.99" y1="-918.5754" x2="741.87" y2="-918.5754" gradientTransform="matrix(1 0 0 1 0 1628)">
			<stop  offset="0" style="stop-color:#C0068D"/>
			<stop  offset="1" style="stop-color:#1A002D"/>
		</linearGradient>
		<path style="fill:url(#SVGID_00000045596073559582473610000015711151648455831453_);" d="M607.8,665.5
			c-8.1-8.7-12.7-20.3-12.8-32.2s4.3-22.7,11.8-31.3c3.7-4.2,8-7.6,12.9-10.3s9.9-4.7,14.7-7.2s9.2-5.3,12.6-9.3
			c3.1-3.6,5.1-8,6.4-12.6c2.6-9.4,2.4-19.5,5.9-28.7c1.6-4.2,4.4-8.3,8.3-10.7s8.5-2.8,12.8-2s8.3,2.9,11.2,6.1
			c3.8,4.2,4.8,10.2,4,15.8c-1.9,12.8-11.2,22.7-15.5,34.7c-7.8,21.5,8.6,39.5,14.1,59.2c1.3,4.8,2,9.8,1.2,14.7
			c-0.9,5.3-3.3,10.1-6,14.7c-5.4,9.1-12.2,18.3-11.5,29.4c0.7,12,8.6,22,16,30.8c7.7,9.1,16.9,19.7,16.7,32.3
			c-0.2,11.3-8.9,20-12,30.5c-3.5,11.7,2.7,22.3,11.2,30c4.9,4.4,10.4,8.1,15.3,12.6c4.1,3.7,7.6,8.1,10.2,13
			c5.1,9.5,6.8,21.6-0.8,30.3s-19.9,11.3-30.6,13.8c-13.9,3.2-27.9,5.7-42.1,7.2c-6.8,0.7-13.7,1.3-20.6,1.6c-1.9,0.1-1.9,3.1,0,3
			c14.5-0.7,28.9-2.3,43.2-4.8c7.3-1.3,14.5-2.7,21.7-4.4c5.8-1.4,11.6-2.8,17.1-5.1c10-4.2,18.4-11.8,19.4-23.2
			c1-11-4.7-21.9-11.9-29.9c-8.6-9.5-21.4-15.2-27.6-26.9c-2.9-5.5-3.3-11.5-1.3-17.4c1.8-5.4,5-10.2,7.5-15.2s4.5-10.5,4.3-16.3
			c-0.2-6.1-2.5-12-5.5-17.2c-6.4-11-16.3-19.4-22.5-30.4c-3.1-5.5-5.2-11.5-4.6-17.9c0.5-5.7,3-10.9,5.8-15.7
			c5.4-9.3,12-18.2,12-29.5c0-10.6-4.9-20.4-9.3-29.8c-4.4-9.5-9.2-19.6-8.3-30.3c1.2-13.2,11.1-23.5,15.5-35.5
			c3.8-10.4,3.3-22.6-6.6-29.4c-7.2-4.9-17.8-5.7-25.1-0.5c-8.2,5.9-10.2,16.2-11.6,25.6c-1.5,10.1-2.7,21-10.6,28.3
			s-19.9,10.2-29,16.5s-16.3,16.1-19.7,27s-2.5,23.5,2.1,34.3c2.3,5.3,5.5,10.2,9.5,14.4C607,669.1,609.1,666.9,607.8,665.5
			L607.8,665.5L607.8,665.5z"/>
	</g>
	<g id="Lager_14">
		
			<linearGradient id="SVGID_00000109708815887171410900000008397345239184788118_" gradientUnits="userSpaceOnUse" x1="690.2795" y1="-608.2091" x2="778.2837" y2="-608.2091" gradientTransform="matrix(1 0 0 1 0 1628)">
			<stop  offset="0.11" style="stop-color:#C0068D"/>
			<stop  offset="0.99" style="stop-color:#05053A"/>
		</linearGradient>
		<path style="fill:url(#SVGID_00000109708815887171410900000008397345239184788118_);" d="M758,975c-11.5-1.1-24,6-24,6l0,0
			c0,0-9.4-2.7-15-3c-7-0.4-17.8,2.3-24,11c-7.2,10.1-5.6,24.5,1,32c5.1,5.8,9.2,3,16,9c10,8.8,5.1,18.3,14,27c6.7,6.5,18.5,10,29,6
			c9.5-3.6,16.9-13.1,17-22c0.1-6.8-4-7.5-4-15c0-8,4.7-9.3,8-21c1.9-6.7,3.5-12.4,1-18C773.7,979.5,764.7,975.7,758,975z"/>
		
			<linearGradient id="SVGID_00000183228508524170146260000002721299742914882185_" gradientUnits="userSpaceOnUse" x1="733.8" y1="-690.5" x2="792.7" y2="-690.5" gradientTransform="matrix(1 0 0 1 0 1628)">
			<stop  offset="0.33" style="stop-color:#A2057C"/>
			<stop  offset="1" style="stop-color:#7C056C"/>
		</linearGradient>
		<circle style="fill:url(#SVGID_00000183228508524170146260000002721299742914882185_);" cx="763.3" cy="937.5" r="29.5"/>
	</g>
	<g id="Lager_12">
		<path class="st11" d="M350.1,1107.3c-9.4,20-14,42.8-9.5,64.6c3.8,18.3,14.8,35.2,30.6,45.2c8,5.1,16.9,7.9,26.3,8.8
			c11,0.9,22.3-0.4,33,2.7c16.3,4.8,24.3,20.6,32.8,33.9c4.1,6.5,8.6,13,14.6,17.9c6.8,5.6,14.8,8.1,23.5,8.9
			c9.3,0.9,19.1,0.2,28,3.3c4.3,1.5,8.2,4.1,11,7.8s4.6,8.2,5.5,12.7c2.4,11,0.2,22.2-0.5,33.3c-0.6,10.3,0.7,20.2,5.6,29.4
			c8.5,15.9,25.5,27.1,43.7,27c18-0.1,35.9-10.5,44.4-26.5s6.9-36.4-3.1-51.4c-2.5-3.7-5.4-7-8.7-9.9c-1.5-1.2-3.6,0.9-2.1,2.1
			c13.5,11.5,19.4,30.8,15.1,48s-19.8,30.4-37.2,33.8c-17.8,3.4-35.8-4.8-46.2-19.4c-5.4-7.6-8.4-16.5-8.7-25.8
			c-0.3-11.4,2.4-22.7,1.6-34c-0.6-9-3.3-18.5-10.3-24.6s-16.2-7.4-25.1-8s-18.6-0.2-27-4.1c-6.7-3.1-12-8.4-16.4-14.3
			c-9.1-12.2-15.2-27.2-27.5-36.7c-7.6-5.9-16.8-7.9-26.3-8.4c-10.4-0.6-21,0.2-31.1-2.8c-17.3-5.2-31-19.1-38.2-35.3
			c-8.7-19.4-7.6-41.9-1.3-61.8c1.6-5.1,3.6-10.1,5.9-14.9C353.5,1107,350.9,1105.5,350.1,1107.3L350.1,1107.3L350.1,1107.3z"/>
		
			<linearGradient id="SVGID_00000105388111874825503060000005542492960864291743_" gradientUnits="userSpaceOnUse" x1="464.47" y1="-838.1808" x2="489.48" y2="-838.1808" gradientTransform="matrix(1 0 0 1 0 1628)">
			<stop  offset="0.11" style="stop-color:#C0068D"/>
			<stop  offset="0.81" style="stop-color:#1A002F"/>
			<stop  offset="0.91" style="stop-color:#1C0031"/>
			<stop  offset="1" style="stop-color:#1C0030"/>
		</linearGradient>
		<path style="fill:url(#SVGID_00000105388111874825503060000005542492960864291743_);" d="M488.5,774.8c-6,3.3-13.4,2.6-18.9,7.1
			c-6.3,5.3-6.3,14.2-6,21.7c0.1,1.9,3.1,1.9,3,0c-0.3-6.8-0.6-15.6,5.7-20c5.2-3.6,12.1-3.2,17.7-6.2
			C491.7,776.5,490.2,773.9,488.5,774.8L488.5,774.8L488.5,774.8z"/>
		
			<linearGradient id="SVGID_00000054972871974601188540000011340173225339124104_" gradientUnits="userSpaceOnUse" x1="432.57" y1="-733.6472" x2="453.28" y2="-733.6472" gradientTransform="matrix(1 0 0 1 0 1628)">
			<stop  offset="0.11" style="stop-color:#C0068D"/>
			<stop  offset="0.81" style="stop-color:#1A002F"/>
			<stop  offset="0.91" style="stop-color:#1C0031"/>
			<stop  offset="1" style="stop-color:#1C0030"/>
		</linearGradient>
		<path style="fill:url(#SVGID_00000054972871974601188540000011340173225339124104_);" d="M452.2,865.8
			c-13.1,9.8-21,25.4-20.6,41.8c0.1,5,0.9,9.9,2.4,14.6c0.6,1.8,3.5,1,2.9-0.8c-4.8-15.1-1.9-32,8-44.4c2.6-3.2,5.5-6.1,8.8-8.6
			C455.3,867.2,453.8,864.6,452.2,865.8L452.2,865.8L452.2,865.8z"/>
	</g>
	<g id="Lager_11">
		
			<linearGradient id="SVGID_00000169558980786154851430000003043178316735784365_" gradientUnits="userSpaceOnUse" x1="358.4434" y1="-611.0099" x2="526.8462" y2="-611.0099" gradientTransform="matrix(1 0 0 1 0 1628)">
			<stop  offset="0.11" style="stop-color:#C0068D"/>
			<stop  offset="0.81" style="stop-color:#1A002F"/>
			<stop  offset="0.91" style="stop-color:#1C0031"/>
			<stop  offset="1" style="stop-color:#1C0030"/>
		</linearGradient>
		<path style="fill:url(#SVGID_00000169558980786154851430000003043178316735784365_);" d="M480,932c9.5,13.4,7.9,29.1,7,38
			c-1.8,17.7-8.1,18.5-8,29c0.3,23.8,32.8,28.1,44,57c7.9,20.3,3.5,48.3-12,61c-28.3,23.2-91.7-5.7-98-36c-3.8-18.4,15.4-28.1,9-51
			c-4.1-14.5-18.5-34.5-21-38c-3.6-5.1-6.6-8.5-9-15c-4.3-11.5-1.1-17.1-6-22c-5.5-5.5-11.9-0.7-19-6c-7.7-5.7-11.4-19.5-6-26
			c5.5-6.7,20.3-5.4,28,1c4.7,3.9,6.2,9.4,14,13c1.4,0.6,5.4,2.5,7,1s-0.8-4.9-1-9c-0.4-7.9,7.5-16,15-19c7.6-3.1,14.4-0.8,25,3
			C461.9,917.6,472.5,921.3,480,932z"/>
	</g>
	<g id="Lager_10">
		
			<radialGradient id="SVGID_00000126289946315775005290000012425035776249154690_" cx="679.5" cy="-94.5" r="63" gradientTransform="matrix(1 0 0 1 0 1628)" gradientUnits="userSpaceOnUse">
			<stop  offset="0.77" style="stop-color:#A2057C"/>
			<stop  offset="1" style="stop-color:#05053A"/>
		</radialGradient>
		<circle style="fill:url(#SVGID_00000126289946315775005290000012425035776249154690_);" cx="679.5" cy="1533.5" r="63"/>
		
			<linearGradient id="SVGID_00000129886284981021667090000014784117446260724412_" gradientUnits="userSpaceOnUse" x1="701" y1="-52" x2="913" y2="-52" gradientTransform="matrix(1 0 0 1 0 1628)">
			<stop  offset="0.33" style="stop-color:#A2057C"/>
			<stop  offset="1" style="stop-color:#7C056C"/>
		</linearGradient>
		<circle style="fill:url(#SVGID_00000129886284981021667090000014784117446260724412_);" cx="807" cy="1576" r="106"/>
		
			<linearGradient id="SVGID_00000114759729293255618120000004629048039292501640_" gradientUnits="userSpaceOnUse" x1="201" y1="-348.5" x2="330" y2="-348.5" gradientTransform="matrix(1 0 0 1 0 1628)">
			<stop  offset="0.33" style="stop-color:#A2057C"/>
			<stop  offset="1" style="stop-color:#7C056C"/>
		</linearGradient>
		<circle style="fill:url(#SVGID_00000114759729293255618120000004629048039292501640_);" cx="265.5" cy="1279.5" r="64.5"/>
	</g>
	<g id="Lager_9">
		
			<linearGradient id="SVGID_00000029024491233719995520000016654284228949848966_" gradientUnits="userSpaceOnUse" x1="621.4723" y1="-411.4006" x2="712.2526" y2="-411.4006" gradientTransform="matrix(1 0 0 1 0 1628)">
			<stop  offset="0.11" style="stop-color:#C0068D"/>
			<stop  offset="0.81" style="stop-color:#1A002F"/>
			<stop  offset="0.91" style="stop-color:#1C0031"/>
			<stop  offset="1" style="stop-color:#1C0030"/>
		</linearGradient>
		<path style="fill:url(#SVGID_00000029024491233719995520000016654284228949848966_);" d="M693,1199c-4.5,11.1-6.7,13.6-5,21
			c0.9,3.8,0.4,7,5,12c18,19.8,13,15.8,16,20c8.2,11.4-0.2,34.4-13,41.2c-10.8,5.8-22,8.8-45-5c-15.4-9.2-26.4,4.2-29,0
			c-2.3-3.8,2.6-10.3,21-35.1c16.2-21.7,24.3-32.8,24-39.1c-0.7-15.7-17.8-17.7-22-37.1c-3.4-15.8,3.1-36.9,16-41.1
			c15.3-4.9,40.2,18.1,41,35C702.2,1176.3,699.2,1183.9,693,1199L693,1199z"/>
	</g>
	<g id="Lager_2_00000093892029034813970130000001682777900008906173_">
		
			<linearGradient id="SVGID_00000122708240782630969920000011168973529087212680_" gradientUnits="userSpaceOnUse" x1="633" y1="-1000.5" x2="678" y2="-1000.5" gradientTransform="matrix(1 0 0 1 0 1628)">
			<stop  offset="0.11" style="stop-color:#C0068D"/>
			<stop  offset="0.81" style="stop-color:#1A002F"/>
			<stop  offset="0.91" style="stop-color:#1C0031"/>
			<stop  offset="1" style="stop-color:#1C0030"/>
		</linearGradient>
		<circle style="fill:url(#SVGID_00000122708240782630969920000011168973529087212680_);" cx="655.5" cy="627.5" r="22.5"/>
		
			<linearGradient id="SVGID_00000051361268876193551200000015412580924034157737_" gradientUnits="userSpaceOnUse" x1="538" y1="-1159.5" x2="667" y2="-1159.5" gradientTransform="matrix(1 0 0 1 0 1628)">
			<stop  offset="0.33" style="stop-color:#A2057C"/>
			<stop  offset="1" style="stop-color:#7C056C"/>
		</linearGradient>
		<circle style="fill:url(#SVGID_00000051361268876193551200000015412580924034157737_);" cx="602.5" cy="468.5" r="64.5"/>
		
			<linearGradient id="SVGID_00000064320733025874010540000012421371566971589764_" gradientUnits="userSpaceOnUse" x1="294" y1="-1181" x2="506" y2="-1181" gradientTransform="matrix(1 0 0 1 0 1628)">
			<stop  offset="0.33" style="stop-color:#A2057C"/>
			<stop  offset="1" style="stop-color:#7C056C"/>
		</linearGradient>
		<circle style="fill:url(#SVGID_00000064320733025874010540000012421371566971589764_);" cx="400" cy="447" r="106"/>
		
			<linearGradient id="SVGID_00000092433911589304304900000016382599177075984016_" gradientUnits="userSpaceOnUse" x1="712" y1="-944.5" x2="825" y2="-944.5" gradientTransform="matrix(1 0 0 1 0 1628)">
			<stop  offset="0.33" style="stop-color:#A2057C"/>
			<stop  offset="1" style="stop-color:#7C056C"/>
		</linearGradient>
		<circle style="fill:url(#SVGID_00000092433911589304304900000016382599177075984016_);" cx="768.5" cy="683.5" r="56.5"/>
	</g>
	<g id="Lager_4">
		
			<linearGradient id="SVGID_00000008108291184943262150000002584944495636475530_" gradientUnits="userSpaceOnUse" x1="451.3061" y1="-744.3389" x2="696.2678" y2="-744.3389" gradientTransform="matrix(1 0 0 1 0 1628)">
			<stop  offset="0" style="stop-color:#C0068D"/>
			<stop  offset="1" style="stop-color:#05053A"/>
		</linearGradient>
		<path style="fill:url(#SVGID_00000008108291184943262150000002584944495636475530_);" d="M604,662c-17.7,7-22.1,26.1-23,30
			c-1.1,4.8-0.4,5.5-1,13c-0.4,5.5-2.3,29.5-13,44c-8.6,11.7-17.1,9.4-33,19c-22.9,13.9-38.3,39-43,60c-5.4,24.1,7,26.5,12,75
			c3.2,30.9,5.5,53.3-7,74c-11.1,18.4-21.4,14.9-33,35c-3.1,5.3-20.5,35.3-6,64c11.7,23.1,35.9,29.3,39,30c17.3,4.1,39.1,1.1,52-12
			c10.6-10.8,7-20.1,20-31c2.7-2.2,16.4-13.8,29-10c10.7,3.2,9.1,14.2,25,30c6.8,6.7,14.8,14.7,27,17c11.5,2.2,28.5-0.4,39-14
			c9.8-12.7,11-31.4,3-42c-6.3-8.3-14.1-6.1-45-21c-10.6-5.1-12.7-6.8-14-8c-11-9.9-15.8-26.7-14-41c1.4-11.5,12.6-25.5,35-53
			c14.1-17.4,17-19.6,21-28c8.9-18.7,8.3-36.2,8-44c-0.3-7.6-2.9-48.9-31-72c-6.2-5.1-10.5-6.8-13-13c-5-12.5,3.3-29.4,10-43
			c3.5-7.1,3.9-6.6,5-10c3.4-10.8,3.1-28.8-10-41C632.9,660.6,617.5,656.7,604,662z"/>
	</g>
	<g id="Lager_6">
		
			<linearGradient id="SVGID_00000138545949508769963630000017358147520811791019_" gradientUnits="userSpaceOnUse" x1="346.3101" y1="-603.4167" x2="694.9037" y2="-603.4167" gradientTransform="matrix(1 0 0 1 0 1628)">
			<stop  offset="6.000000e-02" style="stop-color:#C0068D"/>
			<stop  offset="0.32" style="stop-color:#C0068D"/>
			<stop  offset="0.99" style="stop-color:#1C0030"/>
		</linearGradient>
		<path style="fill:url(#SVGID_00000138545949508769963630000017358147520811791019_);" d="M502,711c-14.8,0.8-24.9,18.3-23,30
			c1,6,4.3,5.9,7,13c5.2,13.8-1.2,31.1-11,41c-7.3,7.4-10.6,4.6-18,11c-14,12.1-19.9,37.7-12,56c7.1,16.6,19.4,13.1,35,34
			c4.2,5.6,16.1,21.6,17,44c1,25.3-12.7,50.3-32,63c-12.8,8.4-28.1,11.4-41,14c-12.4,2.5-14.8,1.5-22,3c-19.5,4.2-41.8,20.1-51,43
			c-15.3,38.1,9.5,84.7,36,93c11.7,3.6,20.5-1.2,43,6c9.2,2.9,17.1,5.4,25,12c16.1,13.3,9.9,24.8,24,36c15,11.9,37.3,11.2,42,11
			c11.9-0.4,13.9-3.4,20-1c13.4,5.3,19.3,26.2,19,42c-0.3,15.4-6.3,16.3-6,29c0.4,15,9.5,35.9,30,44c18.1,7.1,39.3,1.9,51-11
			c10.2-11.2,10.6-25.3,11-39c0.8-25.2-7.5-27.4-8-47c-0.8-36.2,26.5-75,44-93c3.4-3.5,8.3-8.1,11-16c4.2-12.1,1.7-26.9-10-47
			c-26.5-45.8-54.6-40.3-63-69c-8-27.6,15.9-40,5-77c-1.2-4.1-8.3-28.4-23-31c-6.7-1.2-9,3.2-18,3c-12-0.2-25.5-8.3-30-19
			c-6.1-14.3,8.7-21.3,8-41c-0.8-22.3-20.2-22.3-35-60c-6.8-17.3-12.3-31.4-7-46c2.2-6.1,5.7-10.8,4-17
			C521.7,716.8,511.5,710.5,502,711z"/>
	</g>
	<g id="Lager_3">
		
			<linearGradient id="SVGID_00000166664589455921080860000006388196539580223379_" gradientUnits="userSpaceOnUse" x1="517.1467" y1="-405.8371" x2="622.4084" y2="-405.8371" gradientTransform="matrix(1 0 0 1 0 1628)">
			<stop  offset="0.11" style="stop-color:#C0068D"/>
			<stop  offset="1" style="stop-color:#05053A"/>
		</linearGradient>
		<path style="fill:url(#SVGID_00000166664589455921080860000006388196539580223379_);" d="M589,1159c-11.5,1.2-17,5.4-20,9
			c-5.5,6.7-2.8,12.4-9,19c-3.4,3.7-5.4,3.1-18,9c-10.4,4.9-15.6,7.3-18,10c-7.9,8.7-9.5,26-2,35c7,8.4,16.6,3,27,13
			c6.8,6.6,4.3,10.4,11,18c1.5,1.7,15.4,16.9,34,13c13.8-2.9,25.1-15.2,26-27c0.8-10.8-7.8-13.6-8-30c-0.1-8.4,2-16,3-19
			c3.2-9.9,5.8-9.9,7-16c2-10.6-3.4-24.7-15-31C599.8,1158.1,592.6,1158.5,589,1159z"/>
	</g>
</g>
<g id="LOGO">
	<polyline id="Fill-1" class="st26" points="239.8,174.4 239.8,117 221.9,117 221.9,102.8 272,102.8 272,117 254.1,117 254.1,174.4 
		239.8,174.4 	"/>
	<polyline id="Fill-2" class="st26" points="168,169.3 153.9,169.3 153.9,99.2 157.7,99.2 193.3,139.5 193.3,100.8 207.6,100.8 
		207.6,170.8 203.8,170.8 168,132 168,169.3 	"/>
	<polygon id="Fill-3" class="st26" points="286.3,174.4 300.6,174.4 300.6,102.8 286.3,102.8 	"/>
	<path id="Fill-13" class="st26" d="M175.4,70.3V56.3h-75.2v78.7c0,53.6,26.9,70.8,70.9,94.4l4.3,2.3v-15.9l-0.5-0.3
		c-39.9-21.5-60.7-34.8-60.7-80.5V70.3H175.4"/>
	<g>
		<path class="st27" d="M240.1,183.3l-0.8,6.9h-11V231h-6.7v-40.8h-11.8l0.7-6.9H240.1z"/>
		<path class="st27" d="M270.1,183.3l-0.8,6.7h-17.1v13.2h16.2l-0.8,6.7h-15.4v14.3h17.9l-0.8,6.7h-23.8v-47.6L270.1,183.3
			L270.1,183.3z"/>
		<path class="st27" d="M281.6,215.4h9.7v-12l6.2-1.4v13.3h4.2l-0.8,6.4h-3.4v9.2h-6.2v-9.2h-16.5v-5.6l14.1-31h6.5L281.6,215.4
			L281.6,215.4z"/>
	</g>
</g>
<g id="Cloud">
	<path class="st28" d="M962.8,113.8c-0.1,0-0.2,0-0.2,0c-3.8-7.5-10.1-13.4-18.3-16.3c-8.2-2.8-16.9-2-24.7,1.6
		c-2.7-14.9-13.5-26.9-28-29.1c-18.8-2.8-36.5,11.7-39.8,32.5c-0.2,1.6-0.4,3.1-0.5,4.7c-5.2-1.8-10.9-2.9-16.9-2.9
		c-23,0-41.7,15.1-41.7,33.7s18.7,33.7,41.7,33.7c1,0,1.9-0.1,2.9-0.1h125.3c16,0,29-13,29-29C991.8,126.7,978.8,113.8,962.8,113.8z
		"/>
</g>
<g id="Linn_form" class="st29">
	<rect x="85.5" y="1158.2" class="st30" width="923" height="538.2"/>
	<rect x="628" y="476.5" class="st30" width="374.7" height="642.6"/>
</g>
<g id="Lager_6_00000031173194423121452040000010788782706183636141_">
</g>
<g>
	<g>
		<path class="st31" d="M486.1,158.3v-44.6c-2.5,2.2-8.2,5.1-11.1,5.8v-3.5c3.2-1.1,8-4.1,11.8-7.4h3.2v49.7H486.1z"/>
		<path class="st31" d="M503.5,120.1c0.8-6.1,5.2-12,14.5-12c9.4,0,13.8,6.1,13.8,12.4c0,6.1-3.7,9.3-6.9,10.3v0.1
			c5.2,1.6,9.1,5.6,9.1,12.8c0,8.3-5.2,15.4-16.2,15.4c-10,0-15.1-6.5-16-13.1h3.9c1.2,5,5.2,9.5,12.4,9.5c8.5,0,11.8-5.7,11.8-11.7
			c0-7.9-5.2-11-12.4-11h-2.9v-3.5h2.3c7.5,0,10.9-3.1,10.9-9c0-5.2-3.6-8.8-9.9-8.8c-6.5,0-9.4,3.4-10.6,8.4H503.5z"/>
		<path class="st31" d="M545,130.5v-9.7h3.6v9.7H545z M545,158.3v-9.7h3.6v9.7H545z"/>
		<path class="st31" d="M560.9,120.1c0.8-6.1,5.2-12,14.5-12c9.4,0,13.8,6.1,13.8,12.4c0,6.1-3.7,9.3-6.9,10.3v0.1
			c5.2,1.6,9.1,5.6,9.1,12.8c0,8.3-5.2,15.4-16.2,15.4c-10,0-15.1-6.5-16-13.1h3.9c1.2,5,5.2,9.5,12.4,9.5c8.5,0,11.8-5.7,11.8-11.7
			c0-7.9-5.2-11-12.4-11h-2.9v-3.5h2.3c7.5,0,10.9-3.1,10.9-9c0-5.2-3.6-8.8-9.9-8.8c-6.5,0-9.4,3.4-10.6,8.4H560.9z"/>
		<path class="st31" d="M632.2,133.3c0,11.3-2.9,25.9-16.1,25.9c-12.8,0-16-13.4-16-25.6c0-12.1,3.4-25.6,16.3-25.6
			C629.2,108.1,632.2,121.6,632.2,133.3z M604.2,133.7c0,9.6,2,21.9,11.8,21.9c10,0,12-11.8,12-22.3c0-9.4-2-21.6-11.7-21.6
			C606.1,111.7,604.2,122.8,604.2,133.7z"/>
	</g>
</g>
<g>
	<g>
		<path class="st32" d="M418.3,188.5h-10.6v-2.2h23.7v2.2h-10.6v29.2h-2.5V188.5z"/>
		<path class="st32" d="M453.6,206.4c0,6.3-3.5,11.8-10.2,11.8c-6.1,0-9.9-5-9.9-11.8c0-6.4,3.6-11.8,10.1-11.8
			C449.6,194.7,453.6,199.4,453.6,206.4z M435.9,206.5c0,5.4,2.9,9.7,7.6,9.7c4.9,0,7.6-4,7.6-9.7c0-5.3-2.7-9.7-7.7-9.7
			C438.3,196.8,435.9,201.1,435.9,206.5z"/>
		<path class="st32" d="M459.1,201.3c0-3.8,0-5.4,0-6.1h2.2c0,0.7,0.1,2.2,0.1,5c1.3-3.4,4.2-5.4,7.8-5.6v2.4
			c-4.7,0.3-7.8,3.6-7.8,8.9v11.7h-2.2V201.3z"/>
		<path class="st32" d="M473.7,211.5c0.8,2.9,2.8,4.7,6.4,4.7c4,0,5.6-1.8,5.6-4.4c0-2.6-1.1-3.8-6.1-5c-5.8-1.4-7.2-3.1-7.2-6.1
			c0-3.1,2.3-6,7.4-6s7.5,3.1,7.9,6.3h-2.2c-0.4-1.9-1.9-4.2-5.7-4.2c-3.9,0-5,1.9-5,3.7c0,2.1,1.1,3.1,5.5,4.2
			c6.3,1.5,7.9,3.6,7.9,7c0,4.1-3.3,6.6-8.1,6.6c-5.1,0-8-2.7-8.6-6.8H473.7z"/>
		<path class="st32" d="M511.1,184.6v26.7c0,2.2,0,4.2,0,6.5h-2.2c-0.1-0.5-0.1-2.7-0.1-3.8c-1.1,2.7-3.6,4.3-7.6,4.3
			c-5.8,0-9.4-4.8-9.4-11.5c0-6.9,3.8-12.1,9.9-12.1c4.5,0,6.3,1.9,7,3.4v-13.5H511.1z M494.3,206.7c0,6.2,3.2,9.5,7.1,9.5
			c5.9,0,7.6-4.1,7.6-10.2c0-5.8-1.4-9.1-7.2-9.1C497.3,196.8,494.3,200.4,494.3,206.7z"/>
		<path class="st32" d="M533.9,213.4c0,2,0.2,3.6,0.3,4.3H532c-0.2-0.5-0.3-1.5-0.4-3.5c-0.8,1.7-2.7,4-7.4,4
			c-5.2,0-7.5-3.4-7.5-6.8c0-4.9,3.8-7.2,10.6-7.2c1.9,0,3.4,0,4.3,0V202c0-2.2-0.7-5.3-5.8-5.3c-4.5,0-5.2,2.4-5.7,4.2h-2.2
			c0.3-2.5,1.8-6.3,8-6.3c5.1,0,8,2.2,8,7.1V213.4z M531.7,206.2c-0.9,0-2.9,0-4.4,0c-5,0-8.1,1.3-8.1,5.2c0,2.8,2,4.8,5.2,4.8
			c6.4,0,7.3-4.3,7.3-9.1V206.2z"/>
		<path class="st32" d="M558.5,216.2c0,7.2-3.2,11-9.7,11c-5.8,0-8.3-3.3-8.8-6.7h2.3c0.8,3.1,3.4,4.6,6.6,4.6
			c5.8,0,7.5-3.8,7.5-9.5v-2.3c-1.2,2.9-3.4,4.5-7.5,4.5c-5.3,0-9.3-4.3-9.3-11.2c0-7.6,4.3-11.8,9.6-11.8c4.6,0,6.6,2.2,7.2,4
			c0-1.3,0.1-2.9,0.1-3.4h2.1c0,0.8-0.1,4.4-0.1,6.5V216.2z M541.9,206.4c0,5.4,2.8,9.2,7.2,9.2c5.6,0,7.3-3.7,7.3-9.6
			c0-5.9-1.8-9.2-7.2-9.2C544,196.8,541.9,201.3,541.9,206.4z"/>
		<path class="st32" d="M576,217.7v-0.1c0-3.7,3.1-8.3,9-12.9c5.1-4,6.4-5.2,6.4-9c0-3.2-1.8-6-6.1-6c-4,0-6.2,1.9-6.9,6.3h-2.3
			c0.6-5,3.7-8.4,9.2-8.4c6,0,8.5,4.1,8.5,8.1c0,4.6-1.9,6.1-7.4,10.6c-4.4,3.6-7,6.4-7.9,9.3h16.6l-0.4,2.2H576z"/>
		<path class="st32" d="M598.8,217.7v-0.1c0-3.7,3.1-8.3,9-12.9c5.1-4,6.4-5.2,6.4-9c0-3.2-1.8-6-6.1-6c-4,0-6.2,1.9-6.9,6.3h-2.3
			c0.6-5,3.7-8.4,9.2-8.4c6,0,8.5,4.1,8.5,8.1c0,4.6-1.9,6.1-7.4,10.6c-4.4,3.6-7,6.4-7.9,9.3h16.6l-0.4,2.2H598.8z"/>
		<path class="st32" d="M635.8,209.3c0.9,4.2,3.7,6.7,8.9,6.7c5.8,0,8-2.9,8-6.3c0-3.6-1.6-5.8-8.5-7.5c-6.7-1.7-9.5-3.8-9.5-8.4
			c0-4.1,3-8,9.8-8c6.9,0,9.9,4.2,10.3,8.1h-2.5c-0.7-3.4-2.9-5.8-7.9-5.8c-4.5,0-7,2.1-7,5.6c0,3.5,2.1,4.8,7.9,6.3
			c8.9,2.2,10.2,5.8,10.2,9.5c0,4.6-3.4,8.6-10.7,8.6c-7.9,0-10.8-4.6-11.3-8.8H635.8z"/>
		<path class="st32" d="M661.7,206.7c0,5.8,3,9.4,7.3,9.4c4.2,0,5.7-2.4,6.5-4.2h2.3c-0.9,3-3.3,6.3-8.9,6.3
			c-6.8,0-9.5-5.9-9.5-11.6c0-6.4,3.2-12,9.8-12c6.9,0,9.1,6,9.1,10.2c0,0.6,0,1.3,0,1.8H661.7z M676,204.8c0-4.5-2.5-8-6.9-8
			c-4.6,0-6.8,3.2-7.2,8H676z"/>
		<path class="st32" d="M686.1,214.4v12.3h-2.2v-26c0-1.8,0-3.8,0-5.5h2.2c0.1,0.9,0.1,2.2,0.1,4c1.4-2.7,3.9-4.6,7.9-4.6
			c5.3,0,9,4.5,9,11.2c0,8.1-4.3,12.4-9.8,12.4C689.3,218.3,687.2,216.5,686.1,214.4z M700.6,206c0-5.2-2.5-9.1-7-9.1
			c-5.4,0-7.7,3.4-7.7,9.5c0,6,1.8,9.8,7.4,9.8C698,216.1,700.6,212.2,700.6,206z"/>
	</g>
</g>
<line class="st33" x1="1041.4" y1="276.5" x2="70.6" y2="276.5"/>
<line class="st33" x1="1041.4" y1="1746" x2="70.6" y2="1746"/>
<g>
	<g>
		<path class="st31" d="M430.7,1804.6c1.3,5.6,5,8.9,11.9,8.9c7.7,0,10.6-3.8,10.6-8.4c0-4.7-2.1-7.7-11.3-10
			c-8.9-2.2-12.7-5.1-12.7-11.2c0-5.5,4-10.7,13-10.7c9.2,0,13.1,5.6,13.7,10.7h-3.4c-1-4.5-3.9-7.7-10.5-7.7
			c-6.1,0-9.4,2.8-9.4,7.5c0,4.6,2.8,6.4,10.5,8.3c11.8,2.9,13.6,7.7,13.6,12.7c0,6.2-4.5,11.5-14.2,11.5
			c-10.5,0-14.3-6.1-15.1-11.8H430.7z"/>
		<path class="st31" d="M460.2,1785.9h5.6v-9.4h3v9.4h7.1v2.8h-7.1v19.5c0,3.4,0.7,5.3,3.6,5.3c0.9,0,2.2-0.1,3.1-0.4v2.6
			c-1,0.4-2.5,0.5-3.7,0.5c-3.8,0-6-1.9-6-6.7v-20.9h-5.6V1785.9z"/>
		<path class="st31" d="M504.5,1807.1c0,2.9,0.1,7.6,0.1,8.8h-2.9c-0.1-0.8-0.2-2.8-0.2-5.2c-1.3,3.5-4.3,5.9-9.7,5.9
			c-4.3,0-9.8-1.7-9.8-10.9v-19.9h2.9v19.1c0,4.4,1.4,8.6,7.3,8.6c6.7,0,9.2-3.8,9.2-12.4v-15.4h3V1807.1z"/>
		<path class="st31" d="M537.5,1771.6v35.6c0,2.9,0,5.6,0.1,8.6h-2.9c-0.1-0.7-0.2-3.5-0.2-5c-1.5,3.7-4.9,5.8-10.1,5.8
			c-7.8,0-12.5-6.4-12.5-15.4c0-9.2,5.1-16.1,13.3-16.1c6,0,8.4,2.6,9.3,4.5v-18H537.5z M515.1,1801.1c0,8.2,4.3,12.7,9.4,12.7
			c7.9,0,10.1-5.5,10.1-13.6c0-7.7-1.9-12.2-9.5-12.2C519.1,1788,515.1,1792.7,515.1,1801.1z"/>
		<path class="st31" d="M548,1801.2c0.1,7.7,4,12.5,9.7,12.5c5.6,0,7.6-3.2,8.6-5.6h3.1c-1.3,4-4.4,8.5-11.8,8.5
			c-9.1,0-12.7-7.9-12.7-15.5c0-8.6,4.3-16,13-16c9.2,0,12.2,8,12.2,13.6c0,0.8,0,1.7-0.1,2.5H548z M567,1798.6
			c-0.1-5.9-3.3-10.6-9.2-10.6c-6.2,0-9,4.3-9.7,10.6H567z"/>
		<path class="st31" d="M577.4,1793.4c0-2.6,0-5.2-0.1-7.6h2.9c0.1,1,0.2,4.9,0.1,5.7c1.3-3.1,3.8-6.4,10-6.4
			c5.3,0,10.1,3,10.1,11.3v19.4h-3v-19c0-5.3-2.2-8.8-7.4-8.8c-7.1,0-9.6,5.9-9.6,12.5v15.3h-3V1793.4z"/>
		<path class="st31" d="M605.8,1785.9h5.6v-9.4h3v9.4h7.1v2.8h-7.1v19.5c0,3.4,0.7,5.3,3.6,5.3c0.9,0,2.2-0.1,3.1-0.4v2.6
			c-1,0.4-2.5,0.5-3.7,0.5c-3.8,0-6-1.9-6-6.7v-20.9h-5.6V1785.9z"/>
		<path class="st31" d="M628.3,1801.2c0.1,7.7,4,12.5,9.7,12.5c5.6,0,7.6-3.2,8.6-5.6h3.1c-1.3,4-4.4,8.5-11.8,8.5
			c-9.1,0-12.7-7.9-12.7-15.5c0-8.6,4.3-16,13-16c9.2,0,12.2,8,12.2,13.6c0,0.8,0,1.7-0.1,2.5H628.3z M647.3,1798.6
			c-0.1-5.9-3.3-10.6-9.2-10.6c-6.2,0-9,4.3-9.7,10.6H647.3z"/>
		<path class="st31" d="M657.8,1793.4c0-2.6,0-5.2-0.1-7.6h2.9c0.1,1,0.2,4.9,0.1,5.7c1.3-3.1,3.8-6.4,10-6.4
			c5.3,0,10.1,3,10.1,11.3v19.4h-3v-19c0-5.3-2.2-8.8-7.4-8.8c-7.1,0-9.6,5.9-9.6,12.5v15.3h-3V1793.4z"/>
	</g>
</g>
<rect x="76.3" y="368" class="st28" width="435.4" height="1298"/>
<rect x="582.4" y="368" class="st28" width="459.1" height="372"/>
<rect x="582.4" y="825.2" class="st28" width="459.1" height="372"/>
<rect x="582.4" y="1293.1" class="st28" width="459.1" height="372"/>
</svg>
